# xmcd CD database file
#
# Track frame offsets:
#	150
#	15840
#	28887
#	43852
#	61617
#	77467
#	93375
#	111100
#	125370
#	142095
#	156805
#	169000
#
# Disc length: 2442 seconds
#
# Revision: 1
# Processed by: cddbd v1.5.1PL2 Copyright (c) Steve Scherf et al.
# Submitted via: CDex 1.51
#
DISCID=8e09880c
DTITLE=Various Artist - 99.9 WFRE Free Country 2001
DYEAR=2001
DGENRE=Country
TTITLE0=Toby Keith - Should've Been A Cowboy
TTITLE1=Sammy Kershaw - She Don't Know She's Beautiful
TTITLE2=George Strait - Check Yes Or No
TTITLE3=David Lee Murphy - Dust On The Bottle
TTITLE4=Tracy Byrd - I'm From The Country
TTITLE5=Randy Travis - Forever And Ever, Amen
TTITLE6=Wynonna Judd - No One Else On Earth
TTITLE7=Terri Clark - Poor Poor Pitiful Me
TTITLE8=Vince Gill - Don't Let Our Love Start Slippin' Away
TTITLE9=Mark Wills - I Do (Cheish You)
TTITLE10=Mark Chesnutt - It's A Little Too Late
TTITLE11=Lee Greenwood - God Bless The U.S.A.
EXTD=YEAR: 2001
EXTT0=
EXTT1=
EXTT2=
EXTT3=
EXTT4=
EXTT5=
EXTT6=
EXTT7=
EXTT8=
EXTT9=
EXTT10=
EXTT11=
PLAYORDER=
